<?xml version="1.0" standalone="no"?>
<!DOCTYPE svg PUBLIC "-//W3C//DTD SVG 20010904//EN"
 "http://www.w3.org/TR/2001/REC-SVG-20010904/DTD/svg10.dtd">
<svg version="1.0" xmlns="http://www.w3.org/2000/svg"
 width="995.000000pt" height="995.000000pt" viewBox="0 0 995.000000 995.000000"
 preserveAspectRatio="xMidYMid meet">
<metadata>
Created by potrace 1.14, written by Peter Selinger 2001-2017
</metadata>
<g transform="translate(0.000000,995.000000) scale(0.100000,-0.100000)"
fill="#000000" stroke="none">
<path d="M4569 9946 c-2 -2 -33 -7 -69 -10 -128 -13 -165 -17 -185 -21 -11 -2
-42 -7 -70 -10 -27 -3 -75 -10 -105 -15 -30 -5 -73 -12 -95 -16 -22 -3 -98
-19 -170 -35 -595 -135 -1122 -357 -1630 -688 -64 -42 -260 -179 -288 -201
-350 -282 -562 -487 -832 -804 -147 -174 -375 -505 -494 -718 -64 -117 -154
-293 -191 -378 -23 -52 -51 -115 -62 -140 -11 -25 -26 -61 -33 -80 -7 -19 -30
-80 -50 -135 -71 -194 -124 -370 -170 -566 -16 -70 -45 -212 -50 -249 -4 -24
-8 -47 -10 -50 -1 -3 -6 -27 -9 -55 -4 -27 -11 -79 -16 -115 -22 -165 -25
-233 -25 -650 0 -464 3 -531 37 -740 5 -36 12 -78 14 -95 14 -93 69 -352 95
-448 53 -197 141 -468 179 -552 5 -11 26 -60 46 -110 130 -324 371 -742 597
-1037 51 -67 101 -133 111 -147 104 -138 388 -432 601 -621 344 -304 810 -606
1205 -780 52 -23 113 -50 135 -60 168 -77 543 -199 780 -254 132 -30 310 -65
356 -70 19 -2 48 -6 64 -9 17 -3 57 -8 90 -12 33 -4 70 -9 83 -11 13 -1 53 -5
90 -8 37 -3 94 -9 127 -12 76 -6 590 -6 670 0 114 10 190 17 220 21 17 3 68 9
115 16 47 6 99 13 115 15 17 2 41 6 55 9 14 3 39 7 55 10 108 19 408 87 455
104 14 5 59 19 100 31 76 22 109 32 145 46 11 4 25 8 30 9 23 6 227 85 320
125 151 64 377 176 500 248 61 35 129 75 152 88 88 50 330 220 473 333 330
258 669 608 913 941 26 36 53 72 60 80 23 27 183 273 232 355 64 107 205 380
250 485 21 47 46 104 56 127 81 180 229 647 264 833 3 14 7 36 10 50 3 14 12
63 21 110 9 47 18 94 20 105 2 11 6 40 9 65 3 25 10 74 15 110 28 196 35 330
35 625 0 236 -7 409 -20 510 -2 17 -7 55 -10 85 -17 167 -52 360 -100 565 -14
61 -28 119 -30 131 -28 128 -200 621 -245 702 -5 9 -19 40 -31 67 -137 318
-403 751 -647 1053 -86 106 -100 123 -197 231 -306 340 -777 724 -1160 945
-322 186 -622 322 -932 425 -174 58 -414 125 -518 145 -11 2 -54 11 -95 19
-41 9 -95 18 -120 22 -25 3 -56 8 -70 10 -14 2 -43 7 -65 10 -22 3 -51 8 -65
10 -14 2 -52 7 -85 10 -33 3 -73 8 -90 11 -36 7 -860 16 -866 10z m761 -130
c19 -2 71 -7 114 -11 44 -4 87 -8 96 -10 9 -2 41 -6 71 -10 61 -7 146 -20 234
-36 55 -10 102 -21 350 -79 151 -36 532 -169 690 -240 368 -166 690 -356 982
-577 68 -52 133 -102 144 -111 148 -123 228 -197 371 -342 166 -168 215 -221
268 -289 19 -25 42 -52 50 -61 105 -116 398 -540 437 -630 3 -8 14 -26 23 -40
44 -64 177 -336 276 -565 73 -169 204 -591 238 -765 3 -14 14 -70 25 -125 11
-55 22 -113 24 -130 18 -112 26 -167 32 -220 3 -33 8 -73 10 -90 12 -95 28
-384 28 -520 0 -88 -11 -343 -17 -390 -2 -16 -7 -64 -11 -105 -3 -41 -8 -82
-10 -90 -2 -8 -6 -37 -10 -65 -3 -27 -8 -63 -11 -80 -3 -16 -7 -42 -9 -57 -13
-78 -18 -102 -42 -208 -14 -63 -26 -119 -28 -125 -15 -70 -75 -278 -112 -385
-208 -610 -527 -1164 -943 -1642 -89 -102 -388 -399 -490 -487 -217 -186 -522
-400 -779 -546 -90 -51 -414 -215 -424 -215 -4 0 -30 -11 -59 -24 -226 -102
-670 -240 -933 -291 -22 -5 -44 -9 -50 -10 -41 -10 -273 -45 -330 -50 -33 -3
-76 -8 -95 -10 -171 -20 -677 -28 -845 -12 -44 4 -109 10 -145 13 -36 3 -76 7
-90 9 -14 2 -61 9 -105 15 -666 94 -1387 370 -1955 748 -656 437 -1176 998
-1569 1692 -103 181 -249 506 -336 748 -45 124 -123 395 -150 522 -14 64 -47
232 -51 260 -2 19 -7 44 -9 56 -3 11 -7 40 -10 65 -3 24 -7 54 -9 66 -3 12 -8
53 -11 90 -4 37 -9 82 -11 98 -23 187 -23 772 1 929 2 12 6 48 10 81 12 107
15 129 30 215 8 47 17 99 20 115 40 236 146 599 256 880 54 136 231 505 295
614 110 188 311 484 401 591 11 14 42 52 69 85 331 415 856 857 1347 1134 170
95 412 214 542 266 22 9 49 20 60 25 23 11 273 100 295 105 8 2 42 12 75 23
67 22 157 48 195 56 14 3 52 12 85 21 33 8 73 17 89 20 16 3 32 8 36 10 13 8
335 60 440 71 36 3 67 8 70 9 3 2 66 6 140 10 74 4 137 9 138 11 5 4 550 -5
592 -10z"/>
<path d="M4768 9655 c-2 -1 -55 -5 -118 -9 -113 -7 -171 -11 -240 -20 -133
-17 -218 -30 -303 -47 -53 -10 -112 -21 -130 -24 -118 -21 -619 -167 -662
-193 -5 -4 -14 -7 -20 -8 -23 -4 -309 -130 -410 -182 -173 -87 -350 -188 -471
-268 -383 -252 -775 -603 -1044 -934 -19 -24 -40 -48 -45 -54 -6 -6 -45 -56
-86 -111 -306 -405 -540 -847 -701 -1325 -70 -209 -145 -501 -173 -684 -4 -21
-8 -48 -11 -59 -10 -56 -34 -247 -39 -322 -3 -38 -8 -99 -11 -135 -10 -127 -5
-509 11 -685 11 -124 17 -182 20 -195 2 -8 7 -40 10 -70 3 -30 10 -77 15 -105
6 -27 17 -86 25 -130 8 -44 17 -90 19 -101 28 -142 113 -432 184 -624 270
-730 727 -1387 1318 -1896 125 -107 132 -113 254 -205 420 -315 858 -544 1348
-705 145 -47 460 -129 539 -140 26 -3 50 -8 53 -9 7 -4 182 -33 240 -40 25 -3
65 -8 89 -11 47 -6 61 -8 246 -20 195 -13 630 -7 723 10 9 2 49 7 87 10 39 4
97 11 130 16 33 5 78 12 100 15 22 3 51 8 65 11 14 3 36 8 50 10 167 28 461
106 665 176 196 68 547 224 715 319 107 60 226 132 273 165 26 19 49 34 52 34
2 0 34 21 70 48 37 26 77 54 88 62 163 112 447 360 622 543 565 590 952 1277
1155 2052 28 109 77 329 85 389 2 17 11 78 19 136 35 243 41 342 41 640 0 225
-7 386 -20 500 -14 117 -27 218 -30 235 -98 602 -311 1193 -602 1670 -7 11
-16 27 -20 35 -31 62 -192 292 -317 453 -337 433 -796 838 -1276 1127 -101 61
-444 240 -470 246 -3 0 -27 11 -55 23 -166 75 -514 198 -655 231 -25 6 -52 12
-60 15 -46 12 -158 38 -175 41 -11 1 -45 8 -75 14 -110 23 -135 27 -235 40
-44 6 -91 13 -105 15 -14 2 -54 6 -90 9 -36 3 -90 9 -120 12 -52 5 -537 13
-542 9z"/>
</g>
</svg>
